<?xml version="1.0" encoding="UTF-8" standalone="no"?>
<svg
   width="100%"
   height="100%"
   viewBox="0 0 12500 6250"
   version="1.1"
   xml:space="preserve"
   style="fill-rule:evenodd;clip-rule:evenodd;stroke-linejoin:round;stroke-miterlimit:2;"
   id="svg451"
   sodipodi:docname="CVPR-logo.svg"
   inkscape:version="1.2.2 (b0a84865, 2022-12-01)"
   xmlns:inkscape="http://www.inkscape.org/namespaces/inkscape"
   xmlns:sodipodi="http://sodipodi.sourceforge.net/DTD/sodipodi-0.dtd"
   xmlns="http://www.w3.org/2000/svg"
   xmlns:svg="http://www.w3.org/2000/svg"
   xmlns:serif="http://www.serif.com/"><defs
     id="defs455" /><sodipodi:namedview
     id="namedview453"
     pagecolor="#ffffff"
     bordercolor="#000000"
     borderopacity="0.25"
     inkscape:showpageshadow="2"
     inkscape:pageopacity="0.0"
     inkscape:pagecheckerboard="0"
     inkscape:deskcolor="#d1d1d1"
     showgrid="false"
     inkscape:zoom="0.09968"
     inkscape:cx="6250"
     inkscape:cy="3125"
     inkscape:window-width="1390"
     inkscape:window-height="1205"
     inkscape:window-x="0"
     inkscape:window-y="25"
     inkscape:window-maximized="0"
     inkscape:current-layer="svg451" /><g
     id="_-25aae1ff"
     serif:id="#25aae1ff"><g
       id="g448"><g
         transform="matrix(0.735824,0,0,1,331.936,0)"
         id="g446"><g
           aria-label="CVPR"
           id="text444"
           style="font-stretch:condensed;font-size:6233.5px;font-family:Impact, sans-serif;fill:#7394c7"><path
             d="M 4504.1292,2847.511 H 3222.731 v -858.3237 q 0,-374.3753 -42.6119,-465.6863 -39.5681,-94.3548 -179.5783,-94.3548 -158.2725,0 -200.8843,112.617 -42.6118,112.6169 -42.6118,486.9922 v 2288.8633 q 0,359.1567 42.6118,468.7299 42.6118,109.5733 191.7532,109.5733 143.0539,0 185.6657,-109.5733 45.6556,-109.5732 45.6556,-514.3855 v -617.8713 h 1281.3982 v 191.7532 q 0,763.969 -109.5733,1083.5576 -106.5295,319.5886 -477.8611,560.041 -368.2878,240.4524 -910.0666,240.4524 -563.0847,0 -928.3289,-203.928 Q 1713.0552,5322.04 1594.3508,4962.8833 1475.6465,4600.6829 1475.6465,3876.282 V 2436.6113 q 0,-532.6477 36.5244,-797.4497 36.5244,-267.8457 216.1028,-514.3855 182.6221,-246.53977 502.2107,-386.55003 322.6323,-143.05395 739.6194,-143.05395 566.1284,0 934.4162,219.14648 368.2879,219.1465 483.9485,547.8662 115.6607,325.676 115.6607,1016.5962 z"
             id="path457" /><path
             d="M 8007.4292,698.65796 7356.0771,5626.4102 H 5411.1521 L 4671.5327,698.65796 H 6022.936 Q 6257.301,2734.894 6357.7432,4141.084 6458.1853,2719.6755 6567.7585,1614.812 l 88.2674,-916.15404 z"
             id="path459" /><path
             d="M 8226.5757,698.65796 H 9517.105 q 523.517,0 803.537,82.17993 283.064,82.17993 423.075,237.40871 143.054,155.2287 191.753,377.4189 51.743,219.1465 51.743,681.7891 v 429.1619 q 0,471.7736 -97.399,687.8764 -97.398,216.1028 -359.157,331.7634 -258.714,115.6607 -678.7449,115.6607 H 9507.9739 V 5626.4102 H 8226.5757 Z m 1281.3982,843.10524 v 1254.0049 q 54.7866,3.0437 94.3547,3.0437 176.5347,0 243.4961,-85.2237 70.0051,-88.2673 70.0051,-362.2004 v -404.8123 q 0,-252.6272 -79.1362,-328.7197 -79.1362,-76.0925 -328.7197,-76.0925 z"
             id="path461" /><path
             d="m 11355.501,698.65796 h 907.023 q 907.023,0 1226.611,70.00513 322.633,70.00512 523.517,359.15671 203.928,286.1079 203.928,916.1541 0,575.2595 -143.054,773.1001 -143.054,197.8406 -563.085,237.4087 380.463,94.3547 511.342,252.6272 130.879,158.2724 161.316,292.1953 33.481,130.8791 33.481,727.4446 V 5626.4102 H 13026.493 V 3988.8989 q 0,-395.6811 -63.918,-490.0359 -60.874,-94.3547 -325.676,-94.3547 v 2221.9019 h -1281.398 z m 1281.398,843.10524 v 1095.7324 q 216.103,0 301.327,-57.8303 88.267,-60.874 88.267,-386.5501 v -270.8894 q 0,-234.365 -85.224,-307.4138 -82.18,-73.0488 -304.37,-73.0488 z"
             id="path463" /></g></g></g></g></svg>
